<svg viewBox="0 0 332 72" fill="none" xmlns="http://www.w3.org/2000/svg" role="img" aria-label="Digital Universe">
  <defs>
    <linearGradient id="du-mark-gradient" x1="12" y1="10" x2="58" y2="60" gradientUnits="userSpaceOnUse">
      <stop stop-color="#c7f8ff"/>
      <stop offset="0.48" stop-color="#4db4ff"/>
      <stop offset="1" stop-color="#39d0ae"/>
    </linearGradient>
    <linearGradient id="du-text-gradient" x1="90" y1="18" x2="300" y2="54" gradientUnits="userSpaceOnUse">
      <stop stop-color="#ffffff"/>
      <stop offset="1" stop-color="#8ee8ff"/>
    </linearGradient>
  </defs>
  <path d="M14 43.8C8.8 35 11.2 23.5 19.7 17.4C28.9 10.8 42.2 12 50.1 20.3" stroke="url(#du-mark-gradient)" stroke-width="3" stroke-linecap="round"/>
  <path d="M57.5 28.2C62.2 37.4 59.1 48.8 50.1 54.4C41.1 60 28.5 58.4 20.8 50.6" stroke="#8ee8ff" stroke-width="3" stroke-linecap="round" opacity="0.78"/>
  <path d="M18 46V22H32.2C39.6 22 44.8 26.9 44.8 34C44.8 41.1 39.6 46 32.2 46H18ZM27 38.3H31.8C34.3 38.3 35.8 36.6 35.8 34C35.8 31.4 34.3 29.7 31.8 29.7H27V38.3Z" fill="url(#du-mark-gradient)"/>
  <path d="M47 22H56L47.2 46H38.2L47 22Z" fill="#f2b84b"/>
  <circle cx="55.5" cy="20.5" r="4.5" fill="#39d0ae"/>
  <circle cx="16.5" cy="47.5" r="3.2" fill="#8ee8ff"/>
  <text x="84" y="32" font-family="Inter, system-ui, sans-serif" font-size="22" font-weight="900" fill="#ffffff">DIGITAL</text>
  <text x="84" y="55" font-family="Inter, system-ui, sans-serif" font-size="22" font-weight="700" fill="url(#du-text-gradient)">UNIVERSE</text>
  <path d="M219 50H286" stroke="#39d0ae" stroke-width="2.5" stroke-linecap="round" opacity="0.85"/>
  <path d="M295 50H314" stroke="#f2b84b" stroke-width="2.5" stroke-linecap="round"/>
</svg>
