<svg width="180" height="180" viewBox="0 0 180 180" fill="none" xmlns="http://www.w3.org/2000/svg">
  <defs>
    <linearGradient id="markGradient" x1="34" y1="34" x2="146" y2="146" gradientUnits="userSpaceOnUse">
      <stop stop-color="#8bbef0" />
      <stop offset="0.52" stop-color="#3d7ec7" />
      <stop offset="1" stop-color="#5a9de0" />
    </linearGradient>
    <radialGradient id="glow" cx="0" cy="0" r="1" gradientUnits="userSpaceOnUse" gradientTransform="translate(90 90) rotate(90) scale(86)">
      <stop stop-color="#3d7ec7" stop-opacity="0.38" />
      <stop offset="1" stop-color="#070e1a" stop-opacity="0" />
    </radialGradient>
  </defs>
  <rect width="180" height="180" rx="40" fill="#070e1a" />
  <rect x="10" y="10" width="160" height="160" rx="34" fill="url(#glow)" />
  <rect x="18" y="18" width="144" height="144" rx="30" stroke="#5a9de0" stroke-opacity="0.55" stroke-width="3" />
  <path d="M50 121V58L89 121H50Z" fill="#ffffff" />
  <path d="M129 59H91C76.5 59 64 70.8 64 86.1V121H87.1V86.1C87.1 83.8 89 82 91.3 82H110.4L77.7 121H106.6L138.1 83.1C145.7 73.7 138.9 59 129 59Z" fill="url(#markGradient)" />
  <path d="M45 45C66.7 28.7 102 25.8 132 43.1" stroke="#8bbef0" stroke-width="5" stroke-linecap="round" opacity="0.78" />
  <path d="M135 135C113.1 151.8 78.1 154 48 136.8" stroke="#3d7ec7" stroke-width="5" stroke-linecap="round" opacity="0.78" />
  <circle cx="137" cy="45" r="10" fill="#8bbef0" />
</svg>
